<svg width="22" height="26" viewBox="0 0 22 26" fill="none" xmlns="http://www.w3.org/2000/svg">
<path fill-rule="evenodd" clip-rule="evenodd" d="M16.1158 18.2525H6.02894L6.02894 10.6873C6.02894 7.32588 8.55065 5.6439 11.0711 5.6439H11.0736C13.5941 5.6439 16.1158 7.32588 16.1158 10.6873V18.2525ZM12.3332 22.035C12.3332 22.731 11.7684 23.2959 11.0724 23.2959C10.3764 23.2959 9.81153 22.731 9.81153 22.035V20.7742H12.3332V22.035ZM19.8984 18.2524H18.6376V10.6873C18.6376 6.20749 15.6519 3.72108 12.3333 3.22178V0.600464L9.81159 0.600464V3.22178C6.49301 3.72108 3.50731 6.20749 3.50731 10.6873V18.2524H2.24645C1.55046 18.2524 0.985596 18.8173 0.985596 19.5133C0.985596 20.2093 1.55046 20.7742 2.24645 20.7742H7.28987V22.035C7.28987 24.1243 8.9832 25.8176 11.0724 25.8176C13.1617 25.8176 14.855 24.1243 14.855 22.035V20.7742H19.8984C20.5944 20.7742 21.1593 20.2093 21.1593 19.5133C21.1593 18.8173 20.5944 18.2524 19.8984 18.2524Z" fill="black"/>
</svg>
