<svg width="24" height="24" viewBox="0 0 24 24" fill="none" xmlns="http://www.w3.org/2000/svg">
<path fill-rule="evenodd" clip-rule="evenodd" d="M22.469 12.0075C21.6435 12.0075 20.9681 12.6821 20.9681 13.5066V21.0019H2.98687V3.01313H10.4916C11.3171 3.01313 11.9925 2.33855 11.9925 1.51407C11.9925 0.689583 11.3171 0.0150053 10.4916 0.0150053H1.50094C0.675422 0.0150053 0 0.689583 0 1.51407V22.5009C0 23.3254 0.675422 24 1.50094 24H22.4991C23.3246 24 24 23.3254 24 22.5009V13.5066C23.97 12.6821 23.3096 12.0075 22.469 12.0075ZM5.97374 13.5066V15.0056C5.97374 16.6546 7.30957 18.0038 8.97561 18.0038H10.4765C11.272 18.0038 12.0375 17.689 12.5929 17.1193L23.0844 6.62587C24.2552 5.45661 24.2552 3.55277 23.0844 2.3835L21.5835 0.884441C20.9981 0.299807 20.2326 0 19.4672 0C18.7017 0 17.9362 0.299807 17.3508 0.884441L6.85928 11.3779C6.28893 11.9475 5.97374 12.7121 5.97374 13.5066ZM8.97561 13.5066L19.4672 3.01313L20.9681 4.51219L10.4765 15.0056H8.97561V13.5066Z" fill="black"/>
</svg>
