<svg width="20" height="14" viewBox="0 0 20 14" fill="none" xmlns="http://www.w3.org/2000/svg">
<path fill-rule="evenodd" clip-rule="evenodd" d="M19.4625 3.02501C18.7125 1.67501 17.275 0.75 15.625 0.75H10C9.3125 0.75 8.75 1.3125 8.75 2C8.75 2.6875 9.3125 3.25 10 3.25H15.625C16.6625 3.25 17.5 4.0875 17.5 5.125C17.5 6.1625 16.6625 7 15.625 7H4.24999L5.875 5.38753C6.3625 4.90003 6.3625 4.09997 5.875 3.61247C5.3875 3.12497 4.5875 3.12497 4.1 3.61247L0.349998 7.36247C0.249998 7.47497 0.162495 7.60003 0.112495 7.73753C0.0874954 7.77503 0.0750038 7.8125 0.0625038 7.8625C0.0250038 7.9625 0.0125 8.0625 0 8.175V8.29997C0 8.42497 0.0249969 8.56247 0.0749969 8.68747C0.0749969 8.69997 0.0750092 8.71251 0.0875092 8.72501C0.137509 8.87501 0.224993 8.98749 0.324993 9.09999C0.337493 9.11249 0.337498 9.12503 0.349998 9.13753L4.1 12.8875C4.35 13.125 4.66251 13.25 4.98751 13.25C5.31251 13.25 5.625 13.125 5.875 12.8875C6.3625 12.4 6.3625 11.6 5.875 11.1125L4.24999 9.5H15.625C17.275 9.5 18.7125 8.57499 19.4625 7.22499C19.8 6.59999 20 5.8875 20 5.125C20 4.3625 19.8 3.65001 19.4625 3.02501Z" fill="#979797"/>
</svg>
