<svg width="18" height="18" viewBox="0 0 18 18" fill="none" xmlns="http://www.w3.org/2000/svg">
<path fill-rule="evenodd" clip-rule="evenodd" d="M14.625 11.25C13.7137 11.25 12.8925 11.61 12.285 12.195L6.70499 9.40498C6.71624 9.26998 6.75 9.135 6.75 9C6.75 8.865 6.72749 8.73002 6.70499 8.59502L12.285 5.805C12.8925 6.39 13.7137 6.75 14.625 6.75C16.4813 6.75 18 5.23125 18 3.375C18 1.51875 16.4813 0 14.625 0C12.7688 0 11.25 1.51875 11.25 3.375C11.25 3.51 11.2725 3.64498 11.295 3.77998L5.71498 6.57C5.10748 5.985 4.28625 5.625 3.375 5.625C1.51875 5.625 0 7.14375 0 9C0 10.8562 1.51875 12.375 3.375 12.375C4.28625 12.375 5.10748 12.015 5.71498 11.43L11.295 14.22C11.2838 14.355 11.25 14.49 11.25 14.625C11.25 16.4813 12.7688 18 14.625 18C16.4813 18 18 16.4813 18 14.625C18 12.7688 16.4813 11.25 14.625 11.25ZM14.625 2.25C15.2437 2.25 15.75 2.75625 15.75 3.375C15.75 3.99375 15.2437 4.5 14.625 4.5C14.0063 4.5 13.5 3.99375 13.5 3.375C13.5 2.75625 14.0063 2.25 14.625 2.25ZM3.375 10.125C2.75625 10.125 2.25 9.61875 2.25 9C2.25 8.38125 2.75625 7.875 3.375 7.875C3.99375 7.875 4.5 8.38125 4.5 9C4.5 9.61875 3.99375 10.125 3.375 10.125ZM14.625 15.75C14.0063 15.75 13.5 15.2437 13.5 14.625C13.5 14.0063 14.0063 13.5 14.625 13.5C15.2437 13.5 15.75 14.0063 15.75 14.625C15.75 15.2437 15.2437 15.75 14.625 15.75Z" fill="#979797"/>
</svg>
