<svg width="21" height="24" viewBox="0 0 21 24" fill="none" xmlns="http://www.w3.org/2000/svg">
<path fill-rule="evenodd" clip-rule="evenodd" d="M18 7.5H16.5V6C16.5 2.685 13.815 0 10.5 0C7.185 0 4.5 2.685 4.5 6V7.5H3C1.35 7.5 0 8.85 0 10.5V21C0 22.65 1.35 24 3 24H18C19.65 24 21 22.65 21 21V10.5C21 8.85 19.65 7.5 18 7.5ZM7.5 6C7.5 4.35 8.85 3 10.5 3C12.15 3 13.5 4.35 13.5 6V7.5H7.5V6ZM18 21H3V10.5H18V21ZM9.02998 16.365C9.02998 16.41 9 16.455 9 16.5V19.5H12V16.5C12 16.455 11.985 16.41 11.97 16.365C12.855 16.065 13.5 15.24 13.5 14.25C13.5 13.005 12.495 12 11.25 12H9.75C8.505 12 7.5 13.005 7.5 14.25C7.5 15.24 8.14498 16.065 9.02998 16.365Z" fill="black"/>
</svg>
