<svg width="246" height="47" viewBox="0 0 246 47" fill="none" xmlns="http://www.w3.org/2000/svg">
<path fill-rule="evenodd" clip-rule="evenodd" d="M0 4.89844H7.80613L36.0435 23.6106L36.3852 23.3871L36.4209 23.4119H36.5711L40.0218 21.0089L64.656 4.89844H72.9169V42.1009H66.8723V11.841H66.7221L37.7543 30.9123H35.0038L6.04462 11.841H5.89444V42.1009H0V4.89844ZM84.8219 4.89845H78.8695V42.1009H84.8219V4.89845ZM96.7275 4.89845H90.7751V42.1009H96.7275V4.89845ZM102.681 4.89845H108.633V42.1009H102.681V4.89845Z" fill="black"/>
<path d="M129.54 4.08691C130.799 4.08691 131.926 4.26969 132.919 4.63525C133.937 5.00081 134.893 5.57352 135.79 6.35338L133.719 9.16819C133.065 8.68078 132.435 8.32741 131.829 8.10807C131.223 7.88873 130.557 7.77907 129.83 7.77907C126.948 7.77907 125.506 9.98461 125.506 14.3957C125.506 16.6378 125.882 18.2584 126.633 19.2576C127.384 20.2325 128.45 20.7199 129.83 20.7199C130.509 20.7199 131.127 20.6102 131.684 20.3909C132.265 20.1715 132.943 19.8182 133.719 19.3308L135.79 22.2918C133.973 23.7784 131.902 24.5217 129.576 24.5217C127.735 24.5217 126.136 24.1196 124.78 23.3153C123.423 22.4867 122.381 21.317 121.655 19.806C120.928 18.295 120.564 16.5159 120.564 14.4688C120.564 12.4217 120.928 10.6182 121.655 9.05853C122.381 7.47443 123.423 6.2559 124.78 5.40293C126.136 4.52559 127.723 4.08691 129.54 4.08691Z" fill="black"/>
<path d="M146.292 4.08691C149.126 4.08691 151.33 5.00081 152.905 6.82861C154.504 8.63204 155.303 11.1178 155.303 14.286C155.303 16.3088 154.94 18.1 154.213 19.6598C153.486 21.1951 152.445 22.3893 151.088 23.2422C149.732 24.0952 148.121 24.5217 146.255 24.5217C143.421 24.5217 141.204 23.62 139.606 21.8166C138.007 19.9888 137.207 17.4786 137.207 14.286C137.207 12.2633 137.571 10.4842 138.297 8.94886C139.024 7.41351 140.066 6.21934 141.422 5.36637C142.803 4.5134 144.426 4.08691 146.292 4.08691ZM146.292 7.63284C143.506 7.63284 142.113 9.85057 142.113 14.286C142.113 16.5769 142.452 18.2706 143.13 19.3673C143.833 20.4396 144.874 20.9758 146.255 20.9758C147.636 20.9758 148.666 20.4274 149.344 19.3308C150.046 18.2341 150.398 16.5525 150.398 14.286C150.398 12.0196 150.046 10.3502 149.344 9.27786C148.666 8.18118 147.648 7.63284 146.292 7.63284Z" fill="black"/>
<path d="M175.034 23.9734H171L170.746 21.2682C170.044 22.3649 169.208 23.1813 168.239 23.7175C167.294 24.2536 166.168 24.5217 164.859 24.5217C163.139 24.5217 161.807 23.9977 160.862 22.9498C159.942 21.8775 159.481 20.4031 159.481 18.5265V4.63525H164.133V17.9416C164.133 19.0383 164.314 19.8182 164.678 20.2812C165.065 20.7442 165.671 20.9758 166.495 20.9758C167.972 20.9758 169.268 20.0619 170.383 18.2341V4.63525H175.034V23.9734Z" fill="black"/>
<path d="M190.119 4.12347C190.822 4.12347 191.464 4.20877 192.045 4.37936L191.246 8.9123C190.664 8.76608 190.095 8.69297 189.538 8.69297C188.399 8.69297 187.503 9.10727 186.849 9.93587C186.195 10.7401 185.674 11.983 185.286 13.6646V23.9734H180.635V4.63525H184.669L185.105 8.43707C185.565 7.04795 186.231 5.98782 187.103 5.2567C187.975 4.50121 188.981 4.12347 190.119 4.12347Z" fill="black"/>
<path d="M200.543 4.08691C203.135 4.08691 205.412 4.85459 207.374 6.38994L205.558 9.13164C203.91 8.0837 202.299 7.55973 200.725 7.55973C199.804 7.55973 199.089 7.74251 198.581 8.10807C198.072 8.44926 197.818 8.9123 197.818 9.4972C197.818 9.93587 197.927 10.3014 198.145 10.5939C198.363 10.8863 198.75 11.1666 199.307 11.4347C199.889 11.6784 200.737 11.9586 201.851 12.2754C203.934 12.836 205.473 13.5793 206.466 14.5054C207.483 15.4314 207.992 16.7231 207.992 18.3803C207.992 20.3056 207.217 21.8166 205.667 22.9132C204.116 23.9855 202.19 24.5217 199.889 24.5217C198.314 24.5217 196.873 24.278 195.565 23.7906C194.281 23.3032 193.166 22.633 192.222 21.78L194.547 19.148C196.219 20.4152 197.963 21.0489 199.78 21.0489C200.822 21.0489 201.645 20.8417 202.251 20.4274C202.881 20.0131 203.196 19.4404 203.196 18.7093C203.196 18.1488 203.074 17.7101 202.832 17.3933C202.614 17.0521 202.202 16.7596 201.597 16.5159C201.015 16.2479 200.095 15.931 198.835 15.5655C196.873 15.0293 195.432 14.286 194.511 13.3356C193.59 12.3607 193.13 11.1544 193.13 9.71653C193.13 8.64422 193.433 7.68158 194.039 6.82861C194.668 5.97564 195.541 5.30545 196.655 4.81803C197.793 4.33062 199.089 4.08691 200.543 4.08691Z" fill="black"/>
<path d="M227.527 13.8474C227.527 14.0911 227.49 14.7247 227.418 15.7483H215.354C215.499 17.6248 215.983 18.9652 216.807 19.7694C217.631 20.5737 218.721 20.9758 220.077 20.9758C220.925 20.9758 221.725 20.8417 222.476 20.5737C223.227 20.2812 224.026 19.8425 224.874 19.2576L226.8 21.9262C224.668 23.6565 222.294 24.5217 219.678 24.5217C216.746 24.5217 214.481 23.62 212.883 21.8166C211.308 20.0131 210.521 17.5517 210.521 14.4323C210.521 12.4582 210.86 10.6914 211.538 9.13164C212.216 7.54754 213.198 6.31683 214.481 5.43948C215.765 4.53777 217.292 4.08691 219.06 4.08691C221.749 4.08691 223.832 4.95207 225.31 6.68239C226.788 8.38833 227.527 10.7767 227.527 13.8474ZM222.912 12.4948C222.912 9.10727 221.664 7.41351 219.169 7.41351C218.03 7.41351 217.134 7.83999 216.48 8.69297C215.85 9.52157 215.475 10.862 215.354 12.7141H222.912V12.4948Z" fill="black"/>
<path d="M237.767 4.08691C240.36 4.08691 242.637 4.85459 244.599 6.38994L242.782 9.13164C241.135 8.0837 239.524 7.55973 237.949 7.55973C237.029 7.55973 236.314 7.74251 235.805 8.10807C235.297 8.44926 235.042 8.9123 235.042 9.4972C235.042 9.93587 235.151 10.3014 235.369 10.5939C235.587 10.8863 235.975 11.1666 236.532 11.4347C237.113 11.6784 237.961 11.9586 239.076 12.2754C241.159 12.836 242.697 13.5793 243.69 14.5054C244.708 15.4314 245.217 16.7231 245.217 18.3803C245.217 20.3056 244.441 21.8166 242.891 22.9132C241.341 23.9855 239.415 24.5217 237.113 24.5217C235.539 24.5217 234.097 24.278 232.789 23.7906C231.505 23.3032 230.391 22.633 229.446 21.78L231.772 19.148C233.443 20.4152 235.188 21.0489 237.004 21.0489C238.046 21.0489 238.87 20.8417 239.475 20.4274C240.105 20.0131 240.42 19.4404 240.42 18.7093C240.42 18.1488 240.299 17.7101 240.057 17.3933C239.839 17.0521 239.427 16.7596 238.821 16.5159C238.24 16.2479 237.319 15.931 236.06 15.5655C234.097 15.0293 232.656 14.286 231.735 13.3356C230.815 12.3607 230.355 11.1544 230.355 9.71653C230.355 8.64422 230.657 7.68158 231.263 6.82861C231.893 5.97564 232.765 5.30545 233.879 4.81803C235.018 4.33062 236.314 4.08691 237.767 4.08691Z" fill="black"/>
</svg>
