<svg width="24" height="24" viewBox="0 0 24 24" fill="none" xmlns="http://www.w3.org/2000/svg">
<path fill-rule="evenodd" clip-rule="evenodd" d="M19.5 15C18.285 15 17.19 15.48 16.38 16.26L8.93999 12.54C8.95499 12.36 9 12.18 9 12C9 11.82 8.96999 11.64 8.93999 11.46L16.38 7.74001C17.19 8.52001 18.285 9 19.5 9C21.975 9 24 6.975 24 4.5C24 2.025 21.975 0 19.5 0C17.025 0 15 2.025 15 4.5C15 4.68 15.03 4.85998 15.06 5.03998L7.61998 8.75999C6.80998 7.97999 5.715 7.5 4.5 7.5C2.025 7.5 0 9.525 0 12C0 14.475 2.025 16.5 4.5 16.5C5.715 16.5 6.80998 16.02 7.61998 15.24L15.06 18.96C15.045 19.14 15 19.32 15 19.5C15 21.975 17.025 24 19.5 24C21.975 24 24 21.975 24 19.5C24 17.025 21.975 15 19.5 15ZM19.5 3C20.325 3 21 3.675 21 4.5C21 5.325 20.325 6 19.5 6C18.675 6 18 5.325 18 4.5C18 3.675 18.675 3 19.5 3ZM4.5 13.5C3.675 13.5 3 12.825 3 12C3 11.175 3.675 10.5 4.5 10.5C5.325 10.5 6 11.175 6 12C6 12.825 5.325 13.5 4.5 13.5ZM19.5 21C18.675 21 18 20.325 18 19.5C18 18.675 18.675 18 19.5 18C20.325 18 21 18.675 21 19.5C21 20.325 20.325 21 19.5 21Z" fill="black"/>
</svg>
