<svg width="40" height="40" viewBox="0 0 40 40" fill="none" xmlns="http://www.w3.org/2000/svg">
<g clip-path="url(#clip0_28_1534)">
<path d="M37.5602 29.419L31.9662 25.2234C33.3647 22.8259 33.964 20.0289 33.964 17.0321C33.964 7.64201 26.3721 0.0500488 16.982 0.0500488C7.59196 0.0500488 0 7.64201 0 17.032C0 26.422 7.59196 34.014 16.982 34.014C19.9789 34.014 22.5761 33.2149 25.1734 32.0161L29.3689 37.6102C31.5666 40.4073 35.7621 40.8068 38.3594 38.2096C40.7569 35.8121 40.5571 31.6166 37.5602 29.419ZM16.982 30.0183C9.78964 30.0183 3.99577 24.2245 3.99577 17.0321C3.99577 9.83969 9.78964 4.04582 16.982 4.04582C24.1744 4.04582 29.9683 9.83969 29.9683 17.032C29.9683 24.2243 24.1744 30.0183 16.982 30.0183Z" fill="#05A4FD"/>
</g>
<defs>
<clipPath id="clip0_28_1534">
<rect width="40" height="40" fill="white"/>
</clipPath>
</defs>
</svg>
