<svg width="40" height="40" viewBox="0 0 40 40" fill="none" xmlns="http://www.w3.org/2000/svg">
<g clip-path="url(#clip0_28_1554)">
<path d="M23.8637 15C23.6187 15 23.3737 14.9283 23.1604 14.7833L20.0004 12.6333L16.8404 14.7833C16.4121 15.0767 15.8454 15.0733 15.4204 14.7733C14.9954 14.4767 14.7971 13.9467 14.9254 13.4417L15.9204 9.52L12.9387 6.975C12.5504 6.64167 12.4021 6.10834 12.5671 5.625C12.7304 5.14 13.1704 4.805 13.6804 4.775L17.4554 4.56167L18.8287 0.82C19.0071 0.326667 19.4771 0 20.0004 0C20.5237 0 20.9937 0.326667 21.1737 0.82L22.5471 4.56167L26.3221 4.775C26.8321 4.805 27.2721 5.14 27.4354 5.625C27.5987 6.10834 27.4521 6.64167 27.0637 6.975L24.0821 9.52167L25.0771 13.4433C25.2054 13.9483 25.0071 14.4767 24.5821 14.775C24.3654 14.925 24.1137 15 23.8637 15Z" fill="#05A4FD"/>
<path d="M38.7501 31.6667H30.8334V38.75C30.8334 39.1834 30.75 39.6167 30.6167 40H38.7501C39.4334 40 40.0001 39.4334 40.0001 38.75V32.9167C40.0001 32.2334 39.4334 31.6667 38.7501 31.6667Z" fill="#05A4FD"/>
<path d="M9.16667 28.3333H1.25C0.566667 28.3333 0 28.9 0 29.5833V38.75C0 39.4333 0.566667 40 1.25 40H9.38333C9.25 39.6166 9.16667 39.1833 9.16667 38.75V28.3333Z" fill="#05A4FD"/>
<path d="M27.0832 18.3333H12.9165C12.2265 18.3333 11.6665 18.8933 11.6665 19.5833V38.75C11.6665 39.44 12.2265 40 12.9165 40H27.0832C27.7732 40 28.3332 39.44 28.3332 38.75V19.5833C28.3332 18.8933 27.7732 18.3333 27.0832 18.3333ZM21.2498 32.0833C21.2498 32.7733 20.6898 33.3333 19.9998 33.3333C19.3098 33.3333 18.7498 32.7733 18.7498 32.0833V27.1817C18.4948 26.9533 18.3332 26.62 18.3332 26.25C18.3332 25.56 18.8932 25 19.5832 25H19.9998C20.6898 25 21.2498 25.56 21.2498 26.25V32.0833Z" fill="#05A4FD"/>
</g>
<defs>
<clipPath id="clip0_28_1554">
<rect width="40" height="40" fill="white"/>
</clipPath>
</defs>
</svg>
