<svg width="40" height="40" viewBox="0 0 40 40" fill="none" xmlns="http://www.w3.org/2000/svg">
<path d="M29.4585 9.47449C29.4585 11.3705 31.0011 12.913 32.897 12.913C34.16 12.913 35.2655 12.2281 35.8633 11.2106H35.8634C36.1631 10.7007 36.3357 10.1074 36.3357 9.47441C36.3357 9.24549 36.3127 9.02184 36.2699 8.80534H36.2698C35.9574 7.22852 34.5641 6.03589 32.897 6.03589C31.0011 6.03589 29.4585 7.5784 29.4585 9.47449Z" fill="#05A4FD"/>
<path d="M20.9864 16.4194C19.012 16.4194 17.4058 18.0256 17.4058 20C17.4058 21.9744 19.0121 23.5807 20.9864 23.5807C22.9607 23.5807 24.5671 21.9744 24.5671 20C24.5671 18.0256 22.9608 16.4194 20.9864 16.4194Z" fill="#05A4FD"/>
<path d="M38.6773 25.2104C38.1509 23.9315 37.2012 22.5488 35.855 21.1004C35.514 20.7336 35.1508 20.3664 34.7678 20C35.1509 19.6335 35.514 19.2663 35.855 18.8995C37.2012 17.4512 38.1509 16.0684 38.6773 14.7895C39.4591 12.8908 39.1432 11.5669 38.7405 10.7907C38.6972 10.7072 38.648 10.6257 38.596 10.5451C38.3266 11.9821 37.5264 13.2336 36.4063 14.0876C35.8518 15.3029 34.7121 16.8066 32.9973 18.4293C31.7056 17.3618 30.2569 16.315 28.6912 15.3171C28.627 14.5968 28.5477 13.8892 28.4543 13.1964C28.1933 11.2599 27.82 9.44215 27.3436 7.80575C27.1914 7.28321 27.029 6.77861 26.8561 6.29503C26.1905 4.43309 25.4002 2.95345 24.5074 1.8972C23.1819 0.329184 21.8613 0 20.9869 0C20.1125 0 18.792 0.329184 17.4664 1.89735C16.5736 2.95353 15.7833 4.43324 15.1177 6.29518C14.8155 7.14053 14.5448 8.04923 14.3066 9.00916C13.3448 8.77859 12.4135 8.60042 11.524 8.47938C9.56473 8.213 7.88733 8.23307 6.53864 8.53935C4.53623 8.9939 3.63595 10.0147 3.23334 10.7908C2.83073 11.567 2.51485 12.8908 3.29653 14.7896C3.82301 16.0685 4.77255 17.4512 6.11888 18.8996C6.4431 19.2483 6.7874 19.5975 7.14979 19.9461C6.09306 20.9436 5.22159 21.9253 4.54677 22.873C5.42982 22.913 6.26171 23.1516 6.99948 23.5447C7.53107 22.894 8.17472 22.2153 8.91989 21.5232C10.226 22.607 11.6938 23.6702 13.2827 24.6827C13.4067 26.0742 13.5858 27.4198 13.8173 28.6986C12.4097 29.039 11.143 29.2385 10.0433 29.3158C9.94538 30.1891 9.65294 31.0041 9.21012 31.7168C10.7206 31.7008 12.4444 31.4603 14.3114 31.0099C14.5484 31.9627 14.8175 32.865 15.1177 33.7047C15.7834 35.5666 16.5737 37.0462 17.4665 38.1025C18.792 39.6707 20.1126 39.9998 20.987 39.9998C21.1126 39.9998 21.2354 39.9929 21.3569 39.9827C20.2105 39.1253 19.3922 37.8538 19.122 36.3924C18.1857 35.1885 17.2679 33.1418 16.5827 30.38C18.0022 29.9378 19.481 29.3897 20.9925 28.742C21.8131 29.0915 22.6285 29.4134 23.4341 29.7058C25.3535 30.4024 27.2165 30.9324 28.9551 31.2716C29.4646 31.371 29.9634 31.4542 30.4498 31.5203C31.3611 31.6442 32.2111 31.7061 32.9957 31.7061C33.8981 31.7061 34.7137 31.6242 35.4352 31.4603C37.4376 31.0058 38.3379 29.985 38.7405 29.2089C39.1431 28.4327 39.4591 27.1091 38.6773 25.2104ZM31.1967 20C30.4874 20.5739 29.7118 21.1553 28.8698 21.7376C28.8868 21.1659 28.8958 20.5868 28.8958 20C28.8958 19.416 28.886 18.836 28.8676 18.2608C29.7106 18.8437 30.4868 19.4256 31.1967 20ZM20.9889 26.1659C20.1568 25.7897 19.3038 25.377 18.4322 24.925C17.4104 24.3949 16.4474 23.8546 15.542 23.3096C15.4751 22.255 15.4389 21.1512 15.4389 20C15.4389 18.846 15.4753 17.7395 15.5425 16.6825C16.4667 16.1313 17.4322 15.5939 18.4322 15.0751C19.2762 14.6373 20.1303 14.2225 20.9834 13.8339C21.8162 14.2104 22.6694 14.6227 23.5416 15.0751C24.5634 15.6052 25.5265 16.1456 26.4319 16.6906C26.4988 17.7452 26.535 18.849 26.535 20C26.535 21.1344 26.5018 22.2382 26.4367 23.3066C25.5299 23.8526 24.5652 24.3939 23.5416 24.9249C22.6702 25.3769 21.8185 25.7898 20.9889 26.1659ZM15.8147 13.8019C15.8963 13.1604 15.9899 12.5428 16.0938 11.9495C16.7252 12.1484 17.3771 12.3722 18.0475 12.6218C17.8127 12.7395 17.5785 12.8584 17.3453 12.9794C16.8261 13.2487 16.3159 13.5231 15.8147 13.8019ZM24.6287 12.9794C24.3855 12.8531 24.142 12.7297 23.8984 12.6079C24.5663 12.3504 25.2256 12.1128 25.871 11.8968C25.9788 12.5072 26.0755 13.1437 26.1596 13.8052C25.6574 13.524 25.1471 13.2483 24.6287 12.9794ZM20.9869 2.36087C22.4306 2.36087 24.2293 4.96704 25.38 9.57554C23.9571 10.0421 22.4714 10.6084 20.976 11.2555C19.484 10.6201 18.0083 10.0758 16.5792 9.63409C17.7292 4.98899 19.5372 2.36087 20.9869 2.36087ZM5.32901 11.8779C5.72768 11.1092 7.01679 10.659 8.98246 10.659C10.3078 10.659 11.9409 10.8643 13.8148 11.3146C13.5857 12.5832 13.4079 13.9173 13.2844 15.297C11.6934 16.2963 10.2313 17.3351 8.93398 18.3888C5.93615 15.5394 4.71487 13.0619 5.32901 11.8779ZM10.7377 19.968C11.4751 19.383 12.267 18.8026 13.107 18.2316C13.088 18.8164 13.0779 19.4061 13.0779 20C13.0779 20.584 13.0877 21.164 13.1061 21.7391C12.2476 21.1455 11.4582 20.5528 10.7377 19.968ZM16.0954 28.0598C15.9907 27.4626 15.8964 26.8407 15.8143 26.1948C16.3164 26.476 16.8268 26.7517 17.3451 27.0206C17.5815 27.1432 17.8181 27.2633 18.0547 27.3817C17.3816 27.6337 16.7278 27.8594 16.0954 28.0598ZM24.6287 27.0206C25.1517 26.7494 25.6665 26.4711 26.173 26.1874C26.0933 26.8274 26.0006 27.4503 25.8953 28.0553C25.259 27.8552 24.6021 27.6298 23.9262 27.3782C24.16 27.2609 24.3941 27.1423 24.6287 27.0206ZM36.6449 28.1221C35.9783 29.4072 32.8211 29.8027 28.1791 28.6907C28.4079 27.4213 28.583 26.0788 28.703 24.6754C30.2642 23.6799 31.7089 22.6355 32.9974 21.5707C36.0265 24.4371 37.2619 26.9325 36.6449 28.1221Z" fill="#05A4FD"/>
<path d="M7.71942 28.6656C7.71942 26.7696 6.17683 25.2271 4.28081 25.2271C2.3848 25.2271 0.842285 26.7696 0.842285 28.6656C0.842285 30.5616 2.3848 32.1041 4.28081 32.1041C6.17683 32.1041 7.71942 30.5617 7.71942 28.6656Z" fill="#05A4FD"/>
<path d="M28.2613 35.3363C28.2613 34.3426 27.8372 33.4465 27.1609 32.8181V32.818C26.5819 32.2801 25.8181 31.9388 24.9763 31.9015C24.9253 31.8993 24.8743 31.8977 24.8228 31.8977C22.9268 31.8977 21.3843 33.4402 21.3843 35.3362C21.3843 37.2322 22.9269 38.7747 24.8228 38.7747C26.7187 38.7747 28.2613 37.2323 28.2613 35.3363Z" fill="#05A4FD"/>
</svg>
