<svg width="40" height="40" viewBox="0 0 40 40" fill="none" xmlns="http://www.w3.org/2000/svg">
<g clip-path="url(#clip0_28_1563)">
<path d="M33.632 35.4793L37.3264 31.7844C40.8903 28.2205 40.8921 22.4201 37.3264 18.8545C34.075 15.6026 28.9638 15.3169 25.3855 17.9965L9.61832 2.22978C9.10855 1.71963 8.28152 1.71963 7.77129 2.22978L4.07682 5.92385C3.5669 6.43378 3.5669 7.26097 4.07682 7.77089L5.00074 8.6948L0.382442 13.3129C-0.127481 13.8228 -0.127481 14.65 0.382442 15.1599L3.15331 17.9308L5.92355 15.1599C6.4337 14.6497 7.26074 14.6497 7.77097 15.1599C8.28129 15.67 8.28074 16.4967 7.77144 17.0069L5.00081 19.7782L7.77144 22.5488C8.28136 23.0587 9.10855 23.0587 9.61848 22.5488L14.2365 17.9305L19.8437 23.5377C17.1646 27.1178 17.4495 32.2286 20.7018 35.4795C24.2664 39.0441 30.0673 39.0441 33.632 35.4793ZM24.3957 31.7845C23.0323 30.421 22.903 28.3388 23.9048 26.8411C24.2399 26.341 27.6648 22.9742 28.0905 22.5486C29.6183 21.0213 32.1039 21.0213 33.6316 22.5477C33.632 22.5486 33.632 22.5486 33.632 22.5486C35.1598 24.075 35.1606 26.5623 33.6325 28.0905C33.1627 28.5602 29.8387 31.9423 29.34 32.2759C27.8359 33.2827 25.7539 33.1435 24.3957 31.7845Z" fill="#05A4FD"/>
</g>
<defs>
<clipPath id="clip0_28_1563">
<rect width="40" height="40" fill="white"/>
</clipPath>
</defs>
</svg>
