<svg width="40" height="40" viewBox="0 0 40 40" fill="none" xmlns="http://www.w3.org/2000/svg">
<path d="M38.5714 28.5714H35.7143V22.8571C35.7143 22.0681 35.0747 21.4285 34.2857 21.4285H21.4286V11.4285H28.5714C29.3604 11.4285 30 10.7889 30 9.99994V1.42851C30 0.639592 29.3604 0 28.5714 0H11.4285C10.6395 0 9.99994 0.639592 9.99994 1.4286V10C9.99994 10.789 10.6395 11.4286 11.4285 11.4286H18.5714V21.4286H5.71423C4.92522 21.4286 4.28563 22.0681 4.28563 22.8572V28.5715H1.4286C0.639592 28.5714 0 29.211 0 30V38.5714C0 39.3604 0.639592 40 1.4286 40H10C10.789 40 11.4286 39.3604 11.4286 38.5714V30C11.4286 29.211 10.789 28.5714 10 28.5714H7.14282V24.2857H18.5714V28.5714H15.7142C14.9252 28.5714 14.2856 29.211 14.2856 30V38.5714C14.2856 39.3604 14.9252 40 15.7142 40H24.2857C25.0747 40 25.7143 39.3604 25.7143 38.5714V30C25.7143 29.211 25.0747 28.5714 24.2857 28.5714H21.4286V24.2857H32.8571V28.5714H30C29.211 28.5714 28.5714 29.211 28.5714 30V38.5714C28.5714 39.3604 29.211 40 30 40H38.5714C39.3604 40 40 39.3604 40 38.5714V30C40 29.211 39.3604 28.5714 38.5714 28.5714Z" fill="#05A4FD"/>
</svg>
