<svg width="80" height="81" viewBox="0 0 80 81" fill="none" xmlns="http://www.w3.org/2000/svg">
<g clip-path="url(#clip0_342_1948)">
<path d="M66.6657 67.6333H64V70.0999H66.6657V67.6333Z" fill="#F2A12C"/>
<path d="M69.3336 60.2332H66.666V62.6998H69.3336V60.2332Z" fill="#F2A12C"/>
<path d="M15.9997 35.5662H13.334V38.0328H15.9997V35.5662Z" fill="#F6ECC7"/>
<path d="M77.3341 28.166H74.6674H72.001H69.3343V30.6328V33.0995V35.5663V38.0329V40.4996V42.9662V45.433V47.8997V50.3663V52.8331V55.2997H66.6669V57.7666V60.2332H69.3343V62.6998H66.6669V60.2332H64.0011V62.6998H61.3337V65.1667H58.667V67.6333V70.0999H56.0003H53.3338V72.5666H50.6672V75.0332H48.0007H45.334V77.5H48.0007H50.6672H53.3338H56.0003V75.0332H58.667H61.3337V72.5666H64.0011V70.0999V67.6333H66.6669V70.0999H69.3343V67.6333V65.1667H72.001V62.6998H74.6674V60.2332V57.7666H77.3341V55.2997V52.8331H80.0008V50.3663V47.8997V45.433V42.9662V40.4996V38.0329V35.5663V33.0995V30.6328V28.166H77.3341Z" fill="#F2A12C"/>
<path d="M50.6681 74.9714V75.0331H45.334V77.4999H56.0003V75.0331H61.3337V74.9714H50.6681Z" fill="#996E1F"/>
<path d="M66.6657 20.7668H64V23.2335H66.6657V20.7668Z" fill="white"/>
<path d="M64.0006 28.1659V25.6993V23.2336V20.7667H61.3332V18.3001H58.6665V15.8335H55.9999V13.3666H53.3334V10.9H50.6667V8.43337H48H45.3335V5.96655H42.6668H40.0002H37.3335H34.667H32.0003H29.3336H26.6662H24.0005V8.43319H21.3329H18.6671V10.8998H16.0001V13.3665H13.3343V15.8331H10.6667V18.2997H8.00114V20.7667V23.2334H5.33353V25.6991V28.1657H2.66797V30.6324V33.099V35.5656V38.0323V40.4989V42.9655V45.4322V47.8988V50.3654V52.8321H5.33372V55.2987V57.7654H8.00114V60.232V62.6986H10.6667V65.1653H13.3343V67.6319H16.0001V70.0985H18.6675V72.5652H21.3332H24.0008V75.0318H26.6666H29.334H32.0007H34.6674H37.3339H40.0005H42.6672H45.3339V72.5652H48.0004H50.6671V70.0985H53.3337V67.6319H56.0002V65.1653H58.6669V62.6986H61.3336V60.232H64.001V57.7654V55.2987H66.6668V52.8321V50.3654V47.8988V45.4322V42.9655V40.4995V38.0328V35.5662V33.0995V30.6329V28.1663H64.0006V28.1659ZM13.3343 30.6327V28.1661V25.6995H16.0001V23.2337H18.6675V20.7667H21.3332V18.3001H24.0008V15.8335H26.6666H29.334H32.0007H34.6674H37.3339H40.0005H42.6672H45.3339V18.3001H48.0004V20.7667H50.6671V23.2334H53.3337V25.6991H56.0002V28.1657V30.6324H58.6669V33.099V35.5656V38.0323V40.4989V42.9655V45.4322V47.8988V50.3654H56.0002V52.8321V55.2987H53.3337V57.7654H50.6671V60.232H48.0004V62.6986H45.3339V65.1653H42.6672H40.0005H37.3339H34.6674H32.0007H29.334H26.6666H24.0008V62.6986H21.3332V60.232H18.6675V57.7654H16.0001V55.2987H13.3343V52.8321V50.3654H10.6667V47.8988V45.4322V42.9655V40.4995V38.0328V35.5662V33.0995V30.6329H13.3343V30.6327Z" fill="#FCCB25"/>
<path d="M18.6674 28.1659H16V30.6327V33.0993V35.5661V38.0328V40.4994V42.966V45.4329V47.8995H18.6674V50.3661V52.8329H21.3332V55.2996H24.0008V57.7664H26.6663H29.3338V60.233H32.0004H34.6671H37.3336H40.0003H42.667V57.7664H45.3335H48.0001V55.2996H50.6666V52.8329H53.3333V50.3661V47.8995H55.9998V45.4329V42.966V40.4994V38.0328V35.5661V33.0993H53.3333V30.6327V28.1659V25.6992H50.6666V23.2335H48.0001V20.7667H45.3335H42.667V18.3H40.0003H37.3336H34.6671H32.0004H29.3338H26.6663V20.7667H24.0008H21.3332V23.2335H18.6674V25.6992V28.1659Z" fill="#FCCB25"/>
<path d="M74.6666 20.7668V18.3001V15.8335H72.0001V18.3001H69.3334H66.666V20.7668V23.2336V25.6993H69.3334V23.2336H72.0001H74.6666V25.6993V28.1659H77.3333V25.6993V23.2336V20.7668H74.6666Z" fill="#F2A12C"/>
<path d="M69.3343 13.3667V10.9001H66.6669H64.0011V8.43346H61.3337V5.96664H58.667H56.0003V3.5H53.3338H50.6672H48.0007H45.334V5.96664H48.0007H50.6672V8.43346H53.3338V10.9001H56.0003V13.3667H58.667V15.8335H61.3337H64.0011H66.6669H69.3343H72.0009V13.3667H69.3343Z" fill="#F2A12C"/>
<path d="M74.6666 20.7668V18.3001V15.8335H72.0001V18.3001H69.3334H66.666V20.7668V23.2336V25.6993H69.3334V23.2336H72.0001H74.6666V25.6993V28.1659H77.3333V25.6993V23.2336V20.7668H74.6666Z" fill="#F2A12C"/>
<path d="M74.6665 20.7668V18.3001V15.8335H72V18.3001V20.7668H74.6665V23.2336V25.6993V28.1659H77.3332V25.6993V23.2336V20.7668H74.6665Z" fill="#996E1F"/>
<path d="M63.9995 8.43335H61.332V10.9H63.9995V8.43335Z" fill="#996E1F"/>
<path d="M64 13.3668H66.6658H69.3332V10.9001H66.6658H64V13.3668Z" fill="#996E1F"/>
<path d="M58.6676 8.43337H61.3334V5.96655H58.6667H56V8.43337H58.6676Z" fill="#996E1F"/>
<path d="M72.0006 13.3667H69.334V15.8333H72.0006V13.3667Z" fill="#996E1F"/>
<path d="M48.0007 5.96664H50.6681H53.3338H56.0003V3.5H53.3338H50.6681H48.0007H45.334V5.96664H48.0007Z" fill="#996E1F"/>
<path d="M66.6657 60.2332H64V62.6998H66.6657V60.2332Z" fill="#996E1F"/>
<path d="M72.0006 28.1671V28.166H69.334V28.1671H72.0006Z" fill="#996E1F"/>
<path d="M77.3327 28.166H74.666V28.1671H77.3327V30.6338V33.0995V35.5663V38.0329V40.4996V42.9662V45.433V47.8997V50.3663V52.8331H79.9994V50.3663V47.8997V45.433V42.9662V40.4996V38.0329V35.5663V33.0995V30.6338V28.166H77.3327Z" fill="#996E1F"/>
<path d="M66.666 65.1667V67.6334V70.1H69.3335V67.6334V65.1667H66.666Z" fill="#996E1F"/>
<path d="M72.0006 62.6997H69.334V65.1663H72.0006V62.6997Z" fill="#996E1F"/>
<path d="M74.6665 52.833V55.2996V57.7665H72V60.2331V62.6997H74.6665V60.2331V57.7665H77.3332V55.2996V52.833H74.6665Z" fill="#996E1F"/>
<path d="M56.0005 75.0332H53.334V77.5H56.0005V75.0332Z" fill="#996E1F"/>
<path d="M63.9995 70.0999V67.6333H61.332V70.0999V72.5666H63.9995V70.0999Z" fill="#996E1F"/>
<path d="M61.3337 72.5667H58.668V75.0333H61.3337V72.5667Z" fill="#996E1F"/>
<path d="M45.3327 72.5667V75.0333H42.6662H39.9995H37.3328H34.6663H31.9997H29.333H26.6656H24V77.5001H26.6656H29.333H31.9997H34.6663H37.3328H39.9995H42.6662H45.3327V75.0333H47.9994H50.6659V72.5667H47.9994H45.3327Z" fill="#996E1F"/>
<path d="M53.3327 70.0999H50.666V72.5665H53.3327V70.0999Z" fill="#996E1F"/>
<path d="M56.0005 67.6334H53.334V70.1H56.0005H58.6681V67.6334V65.1667H56.0005V67.6334Z" fill="#996E1F"/>
<path d="M61.3337 62.6997H58.668V65.1663H61.3337V62.6997Z" fill="#996E1F"/>
<path d="M63.9995 60.2332H61.332V62.6998H63.9995V60.2332Z" fill="#996E1F"/>
<path d="M64 57.7666V60.2333H66.6657V57.7666V55.2998H64V57.7666Z" fill="#996E1F"/>
<path d="M66.666 30.6338V33.0995V35.5663V38.033V40.4996V42.9662V45.433V47.8997V50.3663V52.8331V55.2998H69.3335V52.8331V50.3663V47.8997V45.433V42.9662V40.4996V38.033V35.5663V33.0995V30.6338H66.666Z" fill="#996E1F"/>
<path d="M64 25.7002V28.1659H66.6657V25.7002V23.2327H64V25.7002Z" fill="#996E1F"/>
<path d="M63.9995 18.3003H61.332V20.7669H63.9995V18.3003Z" fill="#996E1F"/>
<path d="M50.6676 57.7666H48V60.2332H50.6676V57.7666Z" fill="#996E1F"/>
<path d="M53.3337 30.6338V33.0996H56.0002V35.5664V38.033V40.4996V42.9663V45.4331V47.8997H53.3337V50.3664V52.8332H50.668V55.2998V57.7666H53.3337V55.2998H56.0002V52.8332V50.3664H58.6678V47.8997V45.4331V42.9663V40.4996V38.033V35.5664V33.0996V30.6338H56.0002V28.1661V25.6995H53.3337V28.1661V30.6338Z" fill="#996E1F"/>
<path d="M53.3337 23.2336H50.668V25.6994H53.3337V23.2336Z" fill="#996E1F"/>
<path d="M50.6676 20.7668H48V23.2335H50.6676V20.7668Z" fill="#996E1F"/>
<path d="M61.3337 15.8335H58.668V18.3001H61.3337V15.8335Z" fill="#996E1F"/>
<path d="M58.6676 13.3667H56V15.8333H58.6676V13.3667Z" fill="#996E1F"/>
<path d="M56.0005 10.9001H53.334V13.3668H56.0005V10.9001Z" fill="#996E1F"/>
<path d="M53.3327 8.43335H50.666V10.9H53.3327V8.43335Z" fill="#996E1F"/>
<path d="M45.334 8.43337H48.0007H50.6672V5.96655H48.0007H45.334V8.43337Z" fill="#996E1F"/>
<path d="M21.3337 72.5667H18.668V75.0333H21.3337H24.0013V72.5667H21.3337Z" fill="#996E1F"/>
<path d="M18.6674 70.0999H16V72.5665H18.6674V70.0999Z" fill="#996E1F"/>
<path d="M13.3336 67.6334V65.1667H10.666V67.6334V70.1H13.3336H15.9994V67.6334H13.3336Z" fill="#996E1F"/>
<path d="M10.6657 62.6997H8V65.1663H10.6657V62.6997Z" fill="#996E1F"/>
<path d="M26.6652 65.1666H29.3326H31.9993H34.666H37.3325H39.9992H42.6658H45.3323V62.6998H47.999V60.2332H45.3323H42.6658V62.6998H39.9992H37.3325H34.666H31.9993H29.3326H26.6652V60.2332H23.9996H21.332V62.6998H23.9996V65.1666H26.6652Z" fill="#996E1F"/>
<path d="M21.3337 57.7666H18.668V60.2332H21.3337V57.7666Z" fill="#996E1F"/>
<path d="M8.0016 57.7666H5.33398V60.2332V62.6999H8.0016V60.2332V57.7666Z" fill="#996E1F"/>
<path d="M5.33353 52.833H2.66797V55.2996V57.7665H5.33353V55.2996V52.833Z" fill="#996E1F"/>
<path d="M2.66761 47.8997V45.433V42.9662V40.4996V38.033V35.5663V33.0995V30.6338H0V33.0995V35.5663V38.033V40.4996V42.9662V45.433V47.8997V50.3663H2.66761V47.8997Z" fill="#996E1F"/>
<path d="M18.6668 52.8331H15.9994V50.3663V47.8996H13.3336V45.433V42.9662V40.4995V38.0329V35.5663V33.0994H15.9994V30.6337V28.166H18.6668V25.6994V23.2336H15.9994V25.6994H13.3336V28.166V30.6337H10.666V33.0994V35.5663V38.0329V40.4995V42.9662V45.433V47.8996V50.3663H13.3336V52.8331V55.2997H15.9994V57.7665H18.6668V55.2997V52.8331Z" fill="#996E1F"/>
<path d="M5.33353 25.6994V23.2336H2.66797V25.6994V28.166H5.33353V25.6994Z" fill="#996E1F"/>
<path d="M21.3337 20.7668H18.668V23.2335H21.3337V20.7668Z" fill="#996E1F"/>
<path d="M8.0016 20.7669V18.3003H5.33398V20.7669V23.2337H8.0016V20.7669Z" fill="#996E1F"/>
<path d="M26.6652 20.7668V18.3001H29.3326H31.9993H34.666H37.3325H39.9992H42.6658V20.7668H45.3323H47.999V18.3001H45.3323V15.8335H42.6658H39.9992H37.3325H34.666H31.9993H29.3326H26.6652H23.9996V18.3001H21.332V20.7668H23.9996H26.6652Z" fill="#996E1F"/>
<path d="M10.6657 15.8335H8V18.3001H10.6657V15.8335Z" fill="#996E1F"/>
<path d="M13.3336 13.3667H10.666V15.8333H13.3336V13.3667Z" fill="#996E1F"/>
<path d="M15.9997 10.9001H13.334V13.3668H15.9997V10.9001Z" fill="#996E1F"/>
<path d="M18.6674 8.43335H16V10.9H18.6674V8.43335Z" fill="#996E1F"/>
<path d="M24.0013 8.43337V5.96655H21.3337H18.668V8.43337H21.3337H24.0013Z" fill="#996E1F"/>
<path d="M29.333 5.96664H31.9997H34.6663H37.3328H39.9995H42.6662H45.3327V3.5H42.6662H39.9995H37.3328H34.6663H31.9997H29.333H26.6656H24V5.96664H26.6656H29.333Z" fill="#996E1F"/>
<path d="M72.0001 23.2336H69.3334V25.6994H66.666V28.166V30.6328H69.3334V28.166H72.0001H74.6666V25.6994V23.2336H72.0001Z" fill="#FFEEC4"/>
<path d="M69.3326 15.8335H66.6652H63.9995H61.332V18.3001H63.9995V20.7668H66.6652V18.3001H69.3326H71.9993V15.8335H69.3326Z" fill="#FFEEC4"/>
<path d="M37.3342 60.2331H34.6677H32.001H29.3343V57.7665H26.6669H24.0013V55.2996H21.3337V52.833H18.668V55.2996V57.7665H21.3337V60.2331H24.0013H26.6669V62.6997H29.3343H32.001H34.6677H37.3342H40.0008H42.6675V60.2331H40.0008H37.3342Z" fill="#FFEEC4"/>
<path d="M42.666 57.7666V60.2332H45.3325H47.9992V57.7666H45.3325H42.666Z" fill="#FFEEC4"/>
<path d="M50.6667 55.2996H48V57.7662H50.6667V55.2996Z" fill="#FFEEC4"/>
<path d="M18.6674 47.8997H16V50.3663V52.8331H18.6674V50.3663V47.8997Z" fill="#FFEEC4"/>
<path d="M15.9997 42.9662V40.4996V38.033H13.334V40.4996V42.9662V45.4331V47.8997H15.9997V45.4331V42.9662Z" fill="#FFEEC4"/>
<path d="M15.9997 33.0994H13.334V35.566H15.9997V33.0994Z" fill="#FFEEC4"/>
</g>
<defs>
<clipPath id="clip0_342_1948">
<rect width="80" height="80" fill="white" transform="translate(0 0.5)"/>
</clipPath>
</defs>
</svg>
