<svg width="110" height="110" viewBox="0 0 110 110" fill="none" xmlns="http://www.w3.org/2000/svg">
<path d="M59.5176 23.6472H75.232V15.7146H83.0887V7.85742H67.3748V15.7146H59.5176V23.6472Z" fill="#C1E436"/>
<path d="M90.9482 55.0002H83.091V47.1429H59.5199V55.0002H51.6627V47.1429H28.0916V55.0002H20.2344V86.4285H28.0916V94.2857H35.9488V102.143H51.6632V94.2857H59.5204H83.0921V86.4285H90.9493V55.0002H90.9482Z" fill="#E11B43"/>
<path d="M75.234 94.2863H59.5195V102.143H75.234V94.2863Z" fill="#E11B43"/>
<path d="M35.9451 62.8578H28.0879V78.5722H35.9451V62.8578Z" fill="#9B1535"/>
<path d="M43.802 78.5723H35.9453V86.4284H43.802V78.5723Z" fill="#9B1535"/>
<path d="M67.3752 23.6667H75.2324V15.619L67.3752 15.619V23.6667Z" fill="#9CB72C"/>
<path d="M75.2307 15.8097L83.0879 15.8097V7.76197L75.2307 7.76197V15.8097Z" fill="#9CB72C"/>
<path d="M51.659 39.2856H28.0879V47.1429H51.659V39.2856Z" fill="#771535"/>
<path d="M83.0887 39.2856H59.5176V47.1429H83.0887V39.2856Z" fill="#771535"/>
<path d="M59.5174 47.1429H51.6602V55.0002H59.5174V47.1429Z" fill="#771535"/>
<path d="M28.0896 47.1429H20.2324V55.0002H28.0896V47.1429Z" fill="#771535"/>
<path d="M28.0896 86.4283H20.2324V94.2856H28.0896V86.4283Z" fill="#771535"/>
<path d="M35.9451 94.2855H28.0879V102.143H35.9451V94.2855Z" fill="#771535"/>
<path d="M51.6597 102.143H35.9453V110H51.6597V102.143Z" fill="#771535"/>
<path d="M75.232 102.143H59.5176V110H75.232V102.143Z" fill="#771535"/>
<path d="M20.2322 55H12.375V86.4283H20.2322V55Z" fill="#771535"/>
<path d="M83.0881 54.9999H90.9453V47.1427H83.0881V54.9999Z" fill="#771535"/>
<path d="M59.5178 15.7141L67.375 15.7141V7.8569L59.5178 7.8569V15.7141Z" fill="#22510C"/>
<path d="M83.0881 15.7141L90.9453 15.7141V7.8569L83.0881 7.8569V15.7141Z" fill="#22510C"/>
<path d="M83.0881 94.2855H90.9453V86.4283H83.0881V94.2855Z" fill="#771535"/>
<path d="M75.2307 102.143H83.0879V94.2854H75.2307V102.143Z" fill="#771535"/>
<path d="M51.6604 102.143H59.5176V94.2854H51.6604V102.143Z" fill="#771535"/>
<path d="M90.9475 86.4283H98.8047V55H90.9475V86.4283Z" fill="#771535"/>
<path d="M59.5174 15.6107L51.6602 15.715V39.2855L59.5174 39.1813V15.6107Z" fill="#22510C"/>
<path d="M67.3742 7.8573L90.9453 7.8573V8.63075e-05L67.3742 8.63075e-05V7.8573Z" fill="#22510C"/>
<path d="M75.2307 23.5712H83.0879V15.714H75.2307V23.5712Z" fill="#22510C"/>
<path d="M59.518 31.4294L75.2324 31.4294V23.6476H59.518V31.4294Z" fill="#22510C"/>
</svg>
