<svg width="110" height="110" viewBox="0 0 110 110" fill="none" xmlns="http://www.w3.org/2000/svg">
<path d="M43.9989 7.33374L44.004 14.667H36.6703L36.668 22.0002L44.004 21.9641V29.2973H36.6703L36.668 36.6667H73.3342L73.3318 29.2973H65.9986V21.9641L73.3318 22.015L73.3365 14.667H66.0032L65.9986 7.33374H43.9989Z" fill="#668632"/>
<path d="M36.6691 43.9999L36.6677 58.6757L29.334 58.6789V95.3331L36.6677 95.3206L36.67 102.63H73.3339L73.3348 95.3363L80.6676 95.3085V58.6789L73.3339 58.6757V43.9851L36.6691 43.9999Z" fill="#EABD3D"/>
<path d="M73.3327 102.667H36.666V110H73.3327V102.667Z" fill="#996E1F"/>
<path d="M36.6711 95.2965H29.3379V102.63H36.6711V95.2965Z" fill="#996E1F"/>
<path d="M36.6711 44H29.3379V58.6271H36.6711V44Z" fill="#996E1F"/>
<path d="M73.3328 36.6666H36.668V43.9999H73.3328V36.6666Z" fill="#22510C"/>
<path d="M80.6653 95.2965H73.332V102.63H80.6653V95.2965Z" fill="#996E1F"/>
<path d="M80.6653 43.9851H73.332V58.6785H80.6653V43.9851Z" fill="#996E1F"/>
<path d="M29.3332 58.6788H22V95.333H29.3332V58.6788Z" fill="#996E1F"/>
<path d="M88.0012 58.6788H80.668V95.3089H88.0012V58.6788Z" fill="#996E1F"/>
<path d="M36.6711 29.3334H29.3379V36.6666H36.6711V29.3334Z" fill="#22510C"/>
<path d="M80.6711 29.3334H73.3379V36.6666H80.6711V29.3334Z" fill="#22510C"/>
<path d="M44.0051 21.9641H36.6719V29.2973H44.0051V21.9641Z" fill="#22510C"/>
<path d="M36.6711 14.667H29.3379V22.0002H36.6711V14.667Z" fill="#22510C"/>
<path d="M66.0007 29.2975H73.334V21.9643H66.0007V29.2975Z" fill="#22510C"/>
<path d="M80.6653 14.6818H73.332V22.015H80.6653V14.6818Z" fill="#22510C"/>
<path d="M44.0051 7.33374H36.6719V14.667H44.0051V7.33374Z" fill="#22510C"/>
<path d="M73.3391 7.33374H66.0059V14.667H73.3391V7.33374Z" fill="#22510C"/>
<path d="M51.3332 0H44V7.33324H51.3332V0Z" fill="#22510C"/>
<path d="M65.9993 0H58.666V7.33324H65.9993V0Z" fill="#22510C"/>
<path d="M58.6672 7.33374H51.334V36.6672H58.6672V7.33374Z" fill="#22510C"/>
<path d="M44.0012 51.3424H36.668V58.6757H44.0012V51.3424Z" fill="#AF8B2F"/>
<path d="M58.6672 58.6423H51.334V65.9756H58.6672V58.6423Z" fill="#AF8B2F"/>
<path d="M58.6672 43.9995H51.334V51.3328H58.6672V43.9995Z" fill="#AF8B2F"/>
<path d="M73.3332 51.3424H66V58.6757H73.3332V51.3424Z" fill="#AF8B2F"/>
<path d="M36.6711 73.3074H29.3379V80.6406H36.6711V73.3074Z" fill="#AF8B2F"/>
<path d="M51.3332 73.3315H44V80.6648H51.3332V73.3315Z" fill="#AF8B2F"/>
<path d="M65.9993 73.339H58.666V80.6722H65.9993V73.339Z" fill="#AF8B2F"/>
<path d="M80.6653 73.339H73.332V80.6722H80.6653V73.339Z" fill="#AF8B2F"/>
<path d="M44.0012 87.9869H36.668V95.3202H44.0012V87.9869Z" fill="#AF8B2F"/>
<path d="M58.6672 95.3359H51.334V102.669H58.6672V95.3359Z" fill="#AF8B2F"/>
<path d="M73.3332 88.0031H66V95.3363H73.3332V88.0031Z" fill="#AF8B2F"/>
</svg>
