<svg width="110" height="110" viewBox="0 0 110 110" fill="none" xmlns="http://www.w3.org/2000/svg">
<g clip-path="url(#clip0_243_1801)">
<path d="M50.679 23.7617H34.9645V15.8287H27.1074V7.85706H42.822V15.7141H50.679V23.7617Z" fill="#C1E436"/>
<path d="M27.1074 54.9999V94.286H34.9645V102.143H74.2501V94.286H82.1077V54.9999H74.2501V47.1428H34.9645V54.9999H27.1074Z" fill="#FF9933"/>
<path d="M42.8238 62.8588H34.9668V86.4304H42.8238V62.8588Z" fill="#BC6A20"/>
<path d="M50.6769 86.4299H42.8203V94.2865H50.6769V86.4299Z" fill="#BC6A20"/>
<path d="M42.8199 15.7141H34.9629V23.7617H42.8199V15.7141Z" fill="#9CB72C"/>
<path d="M34.9645 7.66687H27.1074V15.7145H34.9645V7.66687Z" fill="#9CB72C"/>
<path d="M27.1059 55H34.9629V47.143H27.1059V55Z" fill="#8E4819"/>
<path d="M27.1059 102.143H34.9629V94.2855H27.1059V102.143Z" fill="#8E4819"/>
<path d="M74.2504 102.143H82.1074V94.2855H74.2504V102.143Z" fill="#8E4819"/>
<path d="M74.2504 55H82.1074V47.143H74.2504V55Z" fill="#8E4819"/>
<path d="M19.2504 94.2859H27.1074L27.1074 55.0002H19.2504L19.2504 94.2859Z" fill="#8E4819"/>
<path d="M82.1059 94.2859H89.9629V55.0002H82.1059V94.2859Z" fill="#8E4819"/>
<path d="M34.9629 39.2858V47.1428H74.2486V39.2858H34.9629Z" fill="#8E4819"/>
<path d="M34.9629 102.143V110H74.2486V102.143H34.9629Z" fill="#8E4819"/>
<path d="M50.6774 7.85706H42.8203V15.7141H50.6774V7.85706Z" fill="#22510C"/>
<path d="M27.107 7.85706H19.25V15.7141H27.107V7.85706Z" fill="#22510C"/>
<path d="M50.677 23.6476H34.9629V31.5046H50.677V23.6476Z" fill="#22510C"/>
<path d="M50.6801 39.2859H58.5371V15.7143H50.6801V39.2859Z" fill="#22510C"/>
<path d="M34.9645 15.7141H27.1074V23.5711H34.9645V15.7141Z" fill="#22510C"/>
<path d="M42.8216 0H19.25V7.85704H42.8216V0Z" fill="#22510C"/>
</g>
<defs>
<clipPath id="clip0_243_1801">
<rect width="70.7143" height="110" fill="white" transform="translate(19.25)"/>
</clipPath>
</defs>
</svg>
