<svg width="110" height="110" viewBox="0 0 110 110" fill="none" xmlns="http://www.w3.org/2000/svg">
<path d="M50.875 95.332H58.2105V102.667H87.5417V95.332H94.8767V65.9805H87.5417V58.6455L58.21 58.6471L58.2105 65.9805H50.8756L50.875 95.332Z" fill="#9B1535"/>
<path d="M43.5407 95.3106L21.544 95.3336V87.9986H14.209V58.6471H21.544V51.3121H50.8752L50.8757 65.9805L43.5407 65.9788V95.3106Z" fill="#9B1535"/>
<path d="M50.876 65.9789H43.541V95.3106H50.876V65.9789Z" fill="#560614"/>
<path d="M102.212 65.9803H94.877V95.3121H102.212V65.9803Z" fill="#560614"/>
<path d="M87.543 58.6471V51.3121L58.2227 51.3121V58.6471L87.543 58.6471Z" fill="#560614"/>
<path d="M87.543 110V102.665H58.2227V110H87.543Z" fill="#560614"/>
<path d="M58.21 58.6455H50.875V65.9805H58.21V58.6455Z" fill="#560614"/>
<path d="M58.21 95.3319H50.875V102.667H58.21V95.3319Z" fill="#560614"/>
<path d="M94.878 95.3319H87.543V102.667H94.878V95.3319Z" fill="#560614"/>
<path d="M94.878 58.6455H87.543V65.9805H94.878V58.6455Z" fill="#560614"/>
<path d="M65.544 73.3121H58.2227V88.0024H65.544V73.3121Z" fill="#E11B43"/>
<path d="M72.8719 88.0023H65.543V95.3313H72.8719V88.0023Z" fill="#E11B43"/>
<path d="M14.21 58.6455H6.875V87.9773H14.21V58.6455Z" fill="#560614"/>
<path d="M50.875 51.3135V43.9785L21.5547 43.9785V51.3135L50.875 51.3135Z" fill="#560614"/>
<path d="M50.875 102.667V95.3315H21.5547V102.667H50.875Z" fill="#560614"/>
<path d="M21.544 51.3121H14.209V58.6471H21.544V51.3121Z" fill="#560614"/>
<path d="M21.544 87.9985H14.209V95.3335H21.544V87.9985Z" fill="#560614"/>
<path d="M58.21 51.3121H50.875V58.6471H58.21V51.3121Z" fill="#560614"/>
<path d="M28.876 65.9789H21.5547V80.6691H28.876V65.9789Z" fill="#E11B43"/>
<path d="M36.2059 80.6689H28.877V87.9979H36.2059V80.6689Z" fill="#E11B43"/>
<path d="M50.8769 29.3356H43.543V36.6695H50.8769V29.3356Z" fill="#22510C"/>
<path d="M58.2109 22.0707H50.877V29.4046H58.2109V22.0707Z" fill="#22510C"/>
<path d="M72.8769 14.7554H65.543V22.0893H72.8769V14.7554Z" fill="#22510C"/>
<path d="M94.8808 14.8435H87.5469V22.1774H94.8808V14.8435Z" fill="#22510C"/>
<path d="M87.5447 22H72.877V29.3339H87.5447V22Z" fill="#22510C"/>
<path d="M80.2109 7.422H72.877V14.7559H80.2109V7.422Z" fill="#22510C"/>
<path d="M102.211 7.422H94.877V14.7559H102.211V7.422Z" fill="#22510C"/>
<path d="M102.213 0H80.2129V7.3339H102.213V0Z" fill="#22510C"/>
<path d="M50.8801 14.7554H36.2129V22.0893H50.8801V14.7554Z" fill="#22510C"/>
<path d="M36.2109 7.33386H28.877V14.6678H36.2109V7.33386Z" fill="#22510C"/>
<path d="M58.212 0H28.877V7.3339H58.212V0Z" fill="#22510C"/>
<path d="M65.5468 7.33386H58.2129V22.0011H65.5468V7.33386Z" fill="#22510C"/>
<path d="M72.8769 22H65.543V51.323H72.8769V22Z" fill="#22510C"/>
<path d="M43.5468 36.6667H36.2129V44.0811H43.5468V36.6667Z" fill="#22510C"/>
<path d="M50.8796 22.0892L58.2113 22.0006V7.33386H36.2129V14.6678L50.8796 14.7553V22.0892Z" fill="#9CB72C"/>
<path d="M72.877 14.7559V22H87.5453V14.8435L94.877 14.7559V7.422L80.2114 7.33386V14.7559H72.877Z" fill="#C1E436"/>
</svg>
